HIERARCHY
ROOT hip
{
  OFFSET 0 0 0
  CHANNELS 6 Xposition Yposition Zposition Zrotation Yrotation Xrotation
  JOINT abdomen
  {
    OFFSET 0 20.6881 -0.73152
    CHANNELS 3 Zrotation Xrotation Yrotation
    JOINT chest
    {
      OFFSET 0 11.7043 -0.48768
      CHANNELS 3 Zrotation Xrotation Yrotation
      JOINT neck
      {
        OFFSET 0 22.1894 -2.19456
        CHANNELS 3 Zrotation Xrotation Yrotation
        JOINT head
        {
          OFFSET -0.24384 7.07133 1.2192
          CHANNELS 3 Zrotation Xrotation Yrotation
          JOINT leftEye
          {
            OFFSET 4.14528 8.04674 8.04672
            CHANNELS 3 Zrotation Xrotation Yrotation
            End Site
            {
              OFFSET 1 0 0
            }
          }
          JOINT rightEye
          {
            OFFSET -3.6576 8.04674 8.04672
            CHANNELS 3 Zrotation Xrotation Yrotation
            End Site
            {
              OFFSET 1 0 0
            }
          }
        }
      }
      JOINT rCollar
      {
        OFFSET -2.68224 19.2634 -4.8768
        CHANNELS 3 Zrotation Xrotation Yrotation
        JOINT rShldr
        {
          OFFSET -8.77824 -1.95073 1.46304
          CHANNELS 3 Zrotation Xrotation Yrotation
          JOINT rForeArm
          {
            OFFSET -28.1742 -1.7115 0.48768
            CHANNELS 3 Zrotation Xrotation Yrotation
            JOINT rHand
            {
              OFFSET -22.5879 0.773209 7.07136
              CHANNELS 3 Zrotation Xrotation Yrotation
              JOINT rThumb1
              {
                OFFSET -1.2192 -0.487915 3.41376
                CHANNELS 3 Zrotation Xrotation Yrotation
                JOINT rThumb2
                {
                  OFFSET -3.37035 -0.52449 3.41376
                  CHANNELS 3 Zrotation Xrotation Yrotation
                  End Site
                  {
                    OFFSET -1.78271 -1.18214 1.43049
                  }
                }
              }
              JOINT rIndex1
              {
                OFFSET -7.75947 0.938293 5.60832
                CHANNELS 3 Zrotation Xrotation Yrotation
                JOINT rIndex2
                {
                  OFFSET -2.54057 -0.884171 1.56538
                  CHANNELS 3 Zrotation Xrotation Yrotation
                  End Site
                  {
                    OFFSET -1.62519 -0.234802 1.16502
                  }
                }
              }
              JOINT rMid1
              {
                OFFSET -8.24714 1.18213 3.41376
                CHANNELS 3 Zrotation Xrotation Yrotation
                JOINT rMid2
                {
                  OFFSET -3.10165 -0.590103 1.0647
                  CHANNELS 3 Zrotation Xrotation Yrotation
                  End Site
                  {
                    OFFSET -2.48547 -0.328903 0.83742
                  }
                }
              }
              JOINT rRing1
              {
                OFFSET -8.82822 0.546677 1.51678
                CHANNELS 3 Zrotation Xrotation Yrotation
                JOINT rRing2
                {
                  OFFSET -2.60934 -0.819778 -0.0198488
                  CHANNELS 3 Zrotation Xrotation Yrotation
                  End Site
                  {
                    OFFSET -2.33842 -0.294052 0.168128
                  }
                }
              }
              JOINT rPinky1
              {
                OFFSET -8.27202 -0.0477905 -0.4584
                CHANNELS 3 Zrotation Xrotation Yrotation
                JOINT rPinky2
                {
                  OFFSET -1.82734 -0.647385 -0.700984
                  CHANNELS 3 Zrotation Xrotation Yrotation
                  End Site
                  {
                    OFFSET -1.69225 -0.51767 -0.607171
                  }
                }
              }
            }
          }
        }
      }
      JOINT lCollar
      {
        OFFSET 2.68224 19.2634 -4.8768
        CHANNELS 3 Zrotation Xrotation Yrotation
        JOINT lShldr
        {
          OFFSET 8.77824 -1.95073 1.46304
          CHANNELS 3 Zrotation Xrotation Yrotation
          JOINT lForeArm
          {
            OFFSET 28.1742 -1.7115 0.48768
            CHANNELS 3 Zrotation Xrotation Yrotation
            JOINT lHand
            {
              OFFSET 22.5879 0.773209 7.07136
              CHANNELS 3 Zrotation Xrotation Yrotation
              JOINT lThumb1
              {
                OFFSET 1.2192 -0.487915 3.41376
                CHANNELS 3 Zrotation Xrotation Yrotation
                JOINT lThumb2
                {
                  OFFSET 3.37035 -0.52449 3.41376
                  CHANNELS 3 Zrotation Xrotation Yrotation
                  End Site
                  {
                    OFFSET 1.78271 -1.18214 1.43049
                  }
                }
              }
              JOINT lIndex1
              {
                OFFSET 7.75947 0.938293 5.60832
                CHANNELS 3 Zrotation Xrotation Yrotation
                JOINT lIndex2
                {
                  OFFSET 2.54057 -0.884171 1.56538
                  CHANNELS 3 Zrotation Xrotation Yrotation
                  End Site
                  {
                    OFFSET 1.62519 -0.234802 1.16502
                  }
                }
              }
              JOINT lMid1
              {
                OFFSET 8.24714 1.18213 3.41376
                CHANNELS 3 Zrotation Xrotation Yrotation
                JOINT lMid2
                {
                  OFFSET 3.10165 -0.590103 1.0647
                  CHANNELS 3 Zrotation Xrotation Yrotation
                  End Site
                  {
                    OFFSET 2.48547 -0.328903 0.83742
                  }
                }
              }
              JOINT lRing1
              {
                OFFSET 8.82822 0.546677 1.51678
                CHANNELS 3 Zrotation Xrotation Yrotation
                JOINT lRing2
                {
                  OFFSET 2.60934 -0.819778 -0.0198488
                  CHANNELS 3 Zrotation Xrotation Yrotation
                  End Site
                  {
                    OFFSET 2.33842 -0.294052 0.168128
                  }
                }
              }
              JOINT lPinky1
              {
                OFFSET 8.27202 -0.0477905 -0.4584
                CHANNELS 3 Zrotation Xrotation Yrotation
                JOINT lPinky2
                {
                  OFFSET 1.82734 -0.647385 -0.700984
                  CHANNELS 3 Zrotation Xrotation Yrotation
                  End Site
                  {
                    OFFSET 1.69225 -0.51767 -0.607171
                  }
                }
              }
            }
          }
        }
      }
    }
  }
  JOINT rButtock
  {
    OFFSET -8.77824 4.35084 1.2192
    CHANNELS 3 Zrotation Xrotation Yrotation
    JOINT rThigh
    {
      OFFSET 0 -1.70687 -2.19456
      CHANNELS 3 Zrotation Xrotation Yrotation
      JOINT rShin
      {
        OFFSET 0 -36.8199 0.73152
        CHANNELS 3 Zrotation Xrotation Yrotation
        JOINT rFoot
        {
          OFFSET 0.73152 -45.1104 -5.12064
          CHANNELS 3 Zrotation Xrotation Yrotation
          End Site
          {
            OFFSET -1.1221 -3.69964 12.103
          }
        }
      }
    }
  }
  JOINT lButtock
  {
    OFFSET 8.77824 4.35084 1.2192
    CHANNELS 3 Zrotation Xrotation Yrotation
    JOINT lThigh
    {
      OFFSET 0 -1.70687 -2.19456
      CHANNELS 3 Zrotation Xrotation Yrotation
      JOINT lShin
      {
        OFFSET 0 -36.8199 0.73152
        CHANNELS 3 Zrotation Xrotation Yrotation
        JOINT lFoot
        {
          OFFSET -0.73152 -45.1104 -5.12064
          CHANNELS 3 Zrotation Xrotation Yrotation
          End Site
          {
            OFFSET 1.1221 -3.69964 12.103
          }
        }
      }
    }
  }
}
MOTION
Frames:	4
Frame Time:	0.03333
0.004504119977355003 57.597129821777344 29.740250434726477 -9.745648875832558 12.28469967842102 -12.789038121700287 2.041626423597336 12.636561244726181 3.3534351736307144 10.416654422879219 -16.45144835114479 2.300614658743143 -10.102779641747475 12.893923223018646 -4.589683078229427 5.058645531535149 -23.01685094833374 -2.3647306859493256 -8.512707129120827 -5.590689852833748 6.0594601929187775 -5.671638250350952 6.990798935294151 -5.767914801836014 10.139816254377365 -4.875454679131508 -1.031992994248867 30.11963278055191 41.11014515161514 28.507933616638184 -20.48235923051834 -13.243852257728577 65.41491508483887 4.355444759130478 -0.6047268211841583 -4.244698025286198 -9.507218599319458 -10.176925957202911 -6.821332946419716 10.27145504951477 -0.7929857075214386 -1.9500920176506042 11.866326034069061 -0.03951447084546089 3.3675124123692513 4.141502380371094 -1.0814539343118668 1.6850508749485016 11.190957874059677 1.3467520661652088 5.006287470459938 -1.4432638138532639 -7.188937738537788 -1.12061963416636 9.415073320269585 -11.886213272809982 -2.2899071127176285 -6.697399467229843 -8.76589760184288 0.3152001276612282 7.207276001572609 -9.517130702733994 5.79121045768261 1.2417199462652206 13.314814120531082 -1.1943400651216507 5.835141688585281 6.077932566404343 2.216897215694189 -51.86937868595123 37.30912506580353 -31.80938422679901 12.243783921003342 -23.280766904354095 -52.58961081504822 14.258002191781998 6.765518859028816 -16.367551535367966 -2.5995946303009987 -3.8950687274336815 -1.947441827505827 8.50124940276146 5.083462335169315 1.8933210521936417 0.9922530502080917 7.822889909148216 2.590535134077072 -11.261453032493591 4.85698364675045 -8.330179452896118 5.194785073399544 7.3553406447172165 9.40341979265213 -7.561843246221542 1.679810844361782 -0.48475664108991623 -4.80402410030365 -4.305735714733601 -6.720302850008011 -10.617612898349762 -11.498788297176361 -6.670053005218506 -3.539520464837551 -4.509574547410011 -10.205442532896996 -5.376156717538834 -2.214084081351757 -10.411062017083168 -0.6225387006998062 -5.2100227028131485 -5.12946255505085 -25.41808784008026 -34.965861439704895 -13.649395555257797 -20.236143171787262 57.433100938797 15.718981325626373 -2.8552155196666718 0.027155857533216476 -7.601542621850967 -1.22895204462111 1.0044007748365402 6.626188158988953 25.823766589164734 -30.373511910438538 33.68824750185013 25.98612606525421 53.4359335899353 -17.922610491514206 -9.792526513338089 -8.681730553507805 21.980788707733154
-0.005964512005448341 57.31040954589844 31.39253493770957 -9.869663491845131 12.60756254196167 -13.63689512014389 1.9594033062458038 12.823479026556015 3.1662196666002274 10.491606071591377 -16.41105428338051 1.9218331016600132 -10.011976137757301 12.940486371517181 -4.552722238004208 5.146777555346489 -22.543628811836243 -2.2261999547481537 -8.219657018780708 -5.619641616940498 5.831338316202164 -5.544641353189945 6.702123507857323 -5.8474744856357574 10.092279464006424 -4.708465710282326 -0.9447890147566795 30.02813458442688 41.35036379098892 28.123599886894226 -20.35907417535782 -13.19583535194397 65.81085205078125 4.334209710359573 -0.9361808001995087 -4.222768284380436 -9.604153633117676 -10.187161266803741 -6.976007893681526 10.118940621614456 -0.4354150593280792 -2.166798412799835 12.2568878531456 -0.10523932054638863 3.372683711349964 4.038800597190857 -1.184193268418312 1.7962338030338287 11.2178336083889 1.7334541864693165 4.905130639672279 -1.422938033938408 -7.272566333413124 -1.2286482844501734 9.334832355380058 -11.945114582777023 -2.0857105404138565 -6.941373199224472 -8.565515130758286 0.06309393793344498 6.743902936577797 -9.665145725011826 6.029953882098198 1.3931527733802795 13.445877581834793 -1.3066763430833817 6.093596667051315 5.934101790189743 2.282514777034521 -52.15777516365051 37.11080253124237 -32.070685029029846 12.29577049612999 -23.149875104427338 -51.79747402667999 13.948958069086075 7.294734790921211 -16.616701930761337 -2.3385727778077126 -3.9902227744460106 -2.1125908009707928 8.663619607686996 5.301823653280735 1.8329767137765884 0.726751908659935 7.7229829877614975 2.641303986310959 -11.306758224964142 4.809524640440941 -8.246687650680542 4.86005075275898 7.613961920142174 9.574110209941864 -7.513064593076706 1.6964834555983543 -0.7410712167620659 -5.053517818450928 -4.040497429668903 -6.357485800981522 -10.6121626496315 -11.551541984081268 -6.365810036659241 -3.668561540544033 -4.750866070389748 -10.315410420298576 -5.345751196146011 -2.2398708388209343 -10.385141149163246 -0.6549505144357681 -5.127432122826576 -5.0033289939165115 -25.753342509269714 -34.57337111234665 -14.241058677434921 -20.46462446451187 57.291351556777954 16.26490741968155 -2.8372393548488617 0.003616791218519211 -7.456773072481155 -1.3610293809324503 1.0744868963956833 6.811099648475647 27.04987943172455 -30.20668923854828 34.08388674259186 26.55755192041397 53.25126349925995 -18.3160999417305 -10.184601098299026 -8.347602412104607 21.68253779411316
-0.017027178779244423 57.335838317871094 33.04343697056174 -10.089760199189186 12.290509343147278 -13.888411223888397 2.052430361509323 12.876758426427841 3.1575286388397217 10.608056858181953 -16.457880288362503 1.9242390431463718 -10.06831057369709 12.76347666978836 -4.436679147183895 5.350174829363823 -22.75846838951111 -2.334636300802231 -8.413797989487648 -5.715908780694008 5.842088609933853 -5.446064807474613 6.615080460906029 -5.793685466051102 9.990854412317276 -4.707787111401558 -0.9186321124434471 29.995092451572418 41.31413251161575 28.10726523399353 -20.420368015766144 -13.437958359718323 65.52600681781769 4.418830722570419 -1.1749926209449768 -4.091876484453678 -9.5980703830719 -10.192976295948029 -7.088108137249947 10.251716673374176 -0.41537895798683167 -2.2052237391471863 12.289385497570038 0.09396834298968315 3.4466268494725227 4.013180136680603 -1.1701277643442154 1.9385196268558502 11.133301109075546 1.7270142026245594 4.841385260224342 -1.3138847798109055 -7.396411970257759 -1.2664406094700098 9.18871097266674 -11.865399330854416 -2.0901737362146378 -6.9654057919979095 -8.333772271871567 0.17556969076395035 6.754127517342567 -9.584676772356033 6.064323708415031 1.5330380201339722 13.67141917347908 -1.4613673835992813 6.309594959020615 6.019986122846603 2.265091147273779 -52.154958844184875 36.94302499294281 -31.96923315525055 12.20535859465599 -23.188088536262512 -51.7754852771759 13.942155987024307 7.199473455548286 -16.82383820414543 -2.2997451201081276 -3.958722911775112 -1.9701225869357586 8.561684936285019 5.232902951538563 1.9367942959070206 0.7436176389455795 7.582070454955101 2.72591695189476 -11.462404131889343 4.808956012129784 -8.184240460395813 4.732495620846748 7.698695585131645 9.577543437480927 -7.283789366483688 1.6551774367690086 -0.6680212542414665 -4.956411123275757 -3.883022256195545 -6.318057328462601 -10.571586191654205 -11.4651158452034 -6.413963735103607 -3.555879257619381 -4.776870086789131 -10.322118625044823 -5.406749993562698 -2.232435755431652 -10.684008970856667 -0.6214336305856705 -5.0081489235162735 -5.143544152379036 -25.77594816684723 -34.5344415307045 -14.274141043424606 -20.52232414484024 57.56407856941223 16.119950115680695 -2.9742197692394257 -0.13661982491612434 -7.536209374666214 -1.1603143159300089 0.965530201792717 6.468871235847473 26.69403612613678 -30.06309449672699 34.01825577020645 26.363099813461304 53.18099498748779 -18.144681304693222 -10.14082744717598 -8.498149439692497 21.749871969223022
-0.027958804741501808 57.26370620727539 34.698860850185156 -10.223015025258064 12.308399677276611 -14.432878196239471 2.154429405927658 12.884204238653183 3.109951615333557 10.628988817334175 -16.437109261751175 1.8188040889799595 -10.08242167532444 12.73777037858963 -4.2902519926428795 5.294127389788628 -22.70801067352295 -2.2597061097621918 -8.408436253666878 -5.696312561631203 5.823280960321426 -5.44615063816309 6.68247364461422 -5.826563984155655 9.972070902585983 -4.676260426640511 -0.8105927333235741 29.946632981300354 41.3266584277153 28.045198917388916 -20.446162819862366 -13.53742003440857 65.5817323923111 4.4379763305187225 -1.3404580950737 -4.128252603113651 -9.618176221847534 -10.144551023840904 -7.182191982865334 10.256431996822357 -0.418865829706192 -2.198410928249359 12.315993010997772 0.08123857900500298 3.4483005478978157 4.01675283908844 -1.2362495809793472 2.022226005792618 11.094344705343246 1.758310217410326 4.793813601136208 -1.422235295176506 -7.419452145695686 -1.3594059739261866 9.221627041697502 -11.901206821203232 -2.147819772362709 -7.076932042837143 -8.359446376562119 0.12271944433450699 6.697286143898964 -9.641413539648056 6.075224205851555 1.5881942957639694 13.743495494127274 -1.480153575539589 6.353422254323959 6.032184809446335 2.2801115177571774 -52.12709605693817 36.766106486320496 -31.962570548057556 12.224740236997604 -23.212182819843292 -51.639395356178284 13.924399763345718 7.254045680165291 -16.99594482779503 -2.2391164675354958 -4.0259068831801414 -2.05160541459918 8.502869457006454 5.292300470173359 1.9570986181497574 0.6895335763692856 7.650364860892296 2.694808691740036 -11.51053637266159 4.8654379695653915 -8.27369213104248 4.643510654568672 7.674139961600304 9.503922164440155 -7.344981282949448 1.6701548919081688 -0.6231049820780754 -5.039559602737427 -3.8747503235936165 -6.177198439836502 -10.55525690317154 -11.472250521183014 -6.325107514858246 -3.571787439286709 -4.785587266087532 -10.332260057330132 -5.497070699930191 -2.1662120148539543 -10.749991312623024 -0.570932999253273 -5.053413882851601 -5.175424888730049 -25.89950144290924 -34.42796856164932 -14.268588870763779 -20.864059031009674 57.56456136703491 16.477284729480743 -2.9434333741664886 -0.12863757088780403 -7.615645676851273 -1.1665263120085 0.9704010933637619 6.456372141838074 27.02560007572174 -30.062236189842224 34.221883714199066 26.859206557273865 53.09486925601959 -18.444914370775223 -10.191376358270645 -8.574270531535149 21.688653230667114
